<svg width="492" height="492" viewBox="0 0 492 492" fill="none" xmlns="http://www.w3.org/2000/svg">
<rect width="492" height="492" rx="100" fill="#42A5F5"/>
<path d="M115.452 350.37H73.6793C72.6686 350.37 72.1072 349.882 71.9949 348.905L31.2329 142.802C31.0083 142.021 31.3452 141.63 32.2435 141.63H70.9843C71.8826 141.63 72.4441 142.021 72.6686 142.802L94.734 278.3L117.473 142.802C117.698 142.021 118.371 141.63 119.494 141.63H150.655C151.554 141.63 152.115 142.021 152.34 142.802L174.742 278.3L197.144 142.802C197.369 142.021 197.93 141.63 198.829 141.63H237.233C238.355 141.63 238.805 142.021 238.58 142.802L197.481 348.905C197.369 349.296 197.032 349.638 196.471 349.931L195.797 350.37H154.024C153.35 350.37 152.789 349.882 152.34 348.905L134.654 241.239L117.136 348.905C117.024 349.882 116.463 350.37 115.452 350.37Z" fill="white"/>
<path d="M340.6 350.37H229.094C228.195 350.37 227.746 349.882 227.746 348.905L228.083 142.802C228.083 142.021 228.532 141.63 229.431 141.63H340.263C341.161 141.63 341.61 142.118 341.61 143.095V176.64C341.61 177.421 341.161 177.812 340.263 177.812H269.519V224.687H340.263C341.161 224.687 341.61 225.077 341.61 225.858L341.947 259.843C341.947 260.624 341.498 261.015 340.6 261.015H269.519V313.456H340.6C341.498 313.456 341.947 313.944 341.947 314.921V349.198C341.947 349.979 341.498 350.37 340.6 350.37Z" fill="white"/>
<path d="M369.685 350.37H330.945C330.159 350.37 329.822 349.882 329.934 348.905L369.349 241.825L330.608 142.802C330.383 142.021 330.72 141.63 331.618 141.63H370.359C371.482 141.63 372.156 142.021 372.38 142.802L395.456 214.14L418.869 142.802C419.094 142.021 419.824 141.63 421.059 141.63H459.294C460.193 141.63 460.53 142.021 460.305 142.802L421.733 241.532L460.642 348.905C461.091 349.882 460.754 350.37 459.631 350.37H421.059C420.048 350.37 419.318 349.882 418.869 348.905L395.456 271.415L371.707 348.905C371.594 349.882 370.921 350.37 369.685 350.37Z" fill="white"/>
</svg>
